<?xml version="1.0" encoding="utf-8"?>
<!-- Svg Vector Icons : http://www.onlinewebfonts.com/icon -->
<!DOCTYPE svg PUBLIC "-//W3C//DTD SVG 1.1//EN" "http://www.w3.org/Graphics/SVG/1.1/DTD/svg11.dtd">
<svg version="1.1" xmlns="http://www.w3.org/2000/svg" xmlns:xlink="http://www.w3.org/1999/xlink" x="0px" y="0px" viewBox="0 0 256 256" enable-background="new 0 0 256 256" xml:space="preserve">
<metadata> Svg Vector Icons : http://www.onlinewebfonts.com/icon </metadata>
<g><g><path fill="#000000" d="M160.1,128c0,17.9-14.6,32.1-32.1,32.1c-17.9,0-32.1-14.6-32.1-32.1c0-4.2,0.9-8.5,2.4-12.3H80.8v48.2c0,6.1,5.2,11.3,11.3,11.3h72.2c6.1,0,11.3-5.2,11.3-11.3v-48.2h-17.5C159.6,119.5,160.1,123.8,160.1,128z"/><path fill="#000000" d="M173.3,102.5V85.1v-2.4H171h-17.5v19.8H173.3z"/><path fill="#000000" d="M128,148.8c11.3,0,20.8-9.4,20.8-20.8c0-4.7-1.4-8.5-3.8-12.3c-3.8-5.2-9.9-8.5-17-8.5c-7.1,0-13.2,3.3-17,8.5c-2.4,3.3-3.8,7.6-3.8,12.3C107.2,139.3,116.7,148.8,128,148.8z"/><path fill="#000000" d="M128,10C62.9,10,10,62.9,10,128c0,65.1,52.9,118,118,118c65.1,0,118-52.9,118-118C246,62.9,193.1,10,128,10z M187,115.7v48.2c0,12.7-10.4,22.7-22.7,22.7H91.7c-12.7,0-22.7-10.4-22.7-22.7v-48.2V91.6C69,78.9,79.4,69,91.7,69h72.2c12.7,0,22.7,10.4,22.7,22.7v24.1H187z"/></g></g>
</svg>